<svg clip-rule="evenodd" fill-rule="evenodd" stroke-linejoin="round" stroke-miterlimit="2" viewBox="0 0 64 64" xmlns="http://www.w3.org/2000/svg"><path d="m-.000438-.001h64v64h-64z" fill="none"/><g fill-rule="nonzero" stroke-width=".21" transform="matrix(4.66645 0 0 4.66645 -5.3307 -5.334)"><path d="m1.999 8c0-3.314 2.687-6.001 6.001-6.001 2.732 0 5.037 1.826 5.763 4.324-.364-.209-.771-.316-1.178-.323-.772-1.766-2.534-3.001-4.585-3.001-2.762 0-5.001 2.239-5.001 5.001 0 2.095 1.289 3.89 3.117 4.634l-.066.265c-.067.267-.067.529-.014.773-2.349-.813-4.037-3.046-4.037-5.672z" fill="#c44d58" stroke="#c44d58"/><path d="m7.999 4.499c1.375 0 2.564.793 3.137 1.945-.115.081-.224.173-.326.275l-.451.451c-.343-.973-1.27-1.671-2.36-1.671-1.38 0-2.5 1.12-2.5 2.5 0 1.09.698 2.018 1.671 2.36l-.117.116c-.207.208-.379.447-.509.708-1.207-.552-2.045-1.77-2.045-3.184 0-1.933 1.567-3.5 3.5-3.5z" fill="#88c200" stroke="#88c200"/><path d="m8.999 7.999c0 .553-.447 1-1 1-.552 0-1-.447-1-1 0-.552.448-1 1-1 .553 0 1 .448 1 1z" fill="#8fcceb" stroke="#8fcceb"/><path d="m11.517 7.426c.568-.568 1.489-.568 2.057 0s.568 1.489 0 2.057l-3.756 3.756c-.219.219-.494.375-.794.45l-1.165.291c-.507.127-.966-.332-.839-.839l.291-1.165c.075-.3.231-.575.45-.794zm.707.707-3.756 3.756c-.091.091-.156.205-.187.33l-.166.666.666-.166c.125-.031.239-.096.33-.187l3.756-3.756c.177-.178.177-.465 0-.643-.178-.177-.466-.177-.643 0z" fill="#676e78" stroke="#676e78"/></g></svg>